<?xml version="1.0" standalone="no"?>
<!DOCTYPE svg PUBLIC "-//W3C//DTD SVG 20010904//EN"
 "http://www.w3.org/TR/2001/REC-SVG-20010904/DTD/svg10.dtd">
<svg version="1.0" xmlns="http://www.w3.org/2000/svg"
 width="256.000000pt" height="207.000000pt" viewBox="0 0 256.000000 207.000000"
 preserveAspectRatio="xMidYMid meet">
<metadata>
Created by potrace 1.16, written by Peter Selinger 2001-2019
</metadata>
<g transform="translate(0.000000,207.000000) scale(0.100000,-0.100000)"
fill="#DE005D" stroke="none">
<path d="M323 1751 c-9 -14 -9 -22 -2 -27 6 -3 14 -16 20 -27 5 -12 13 -29 19
-37 16 -25 216 -372 239 -415 12 -22 30 -53 41 -70 11 -16 23 -37 27 -45 7
-17 168 -297 183 -320 6 -8 16 -26 23 -40 32 -62 61 -101 74 -98 8 2 27 26 42
53 48 86 121 212 141 245 19 30 206 355 213 370 4 8 16 29 27 45 11 17 28 46
38 65 35 68 76 135 87 142 5 4 104 8 218 8 181 0 208 -2 214 -16 7 -18 -30
-95 -66 -138 -26 -31 -9 -39 84 -37 103 3 113 8 151 86 14 27 54 97 89 155 35
58 61 108 58 113 -2 4 -195 7 -428 7 l-423 0 -39 -63 c-21 -34 -43 -72 -50
-82 -7 -11 -24 -42 -39 -70 -14 -27 -38 -68 -53 -90 -15 -22 -37 -60 -50 -85
-13 -25 -33 -61 -45 -81 -11 -20 -39 -67 -61 -105 -22 -38 -45 -78 -52 -89 -7
-11 -17 -32 -24 -47 -16 -41 -55 -38 -75 5 -8 17 -19 39 -24 47 -5 8 -48 83
-95 165 -47 83 -90 157 -96 165 -5 8 -14 26 -19 39 -6 13 -19 35 -30 49 -11
13 -20 35 -20 48 0 24 1 24 104 24 l105 0 23 -32 c13 -18 31 -49 42 -68 21
-40 45 -70 57 -70 8 0 25 28 52 86 8 17 20 35 26 38 21 13 10 51 -38 131 l-48
80 -304 3 c-293 2 -304 2 -316 -17z"/>
<path d="M1505 1192 c-14 -10 -65 -86 -65 -97 0 -5 -7 -16 -16 -26 -27 -30
-11 -50 38 -48 24 2 64 2 91 1 41 -2 47 -5 47 -24 0 -11 -11 -36 -25 -54 -14
-18 -25 -36 -25 -41 0 -5 -16 -32 -35 -62 -19 -29 -35 -55 -35 -57 0 -3 -38
-70 -85 -150 -47 -80 -85 -149 -85 -155 0 -10 -41 -29 -51 -23 -4 2 -19 28
-34 59 -16 30 -37 63 -47 72 -19 17 -20 17 -35 -2 -8 -11 -21 -34 -29 -52 -7
-17 -18 -34 -23 -37 -5 -4 -12 -20 -16 -36 -6 -26 6 -53 84 -185 50 -84 91
-159 91 -164 0 -6 10 -11 23 -11 15 0 27 9 35 27 6 16 21 44 33 63 44 72 169
290 169 294 0 2 16 28 35 57 19 30 35 57 35 61 0 4 12 24 26 45 14 21 30 47
35 58 5 11 13 27 18 35 6 8 29 49 53 90 23 41 46 76 50 78 5 2 8 8 8 14 0 5
32 64 70 130 39 66 70 127 70 134 0 11 -37 14 -197 14 -109 0 -203 -4 -208 -8z"/>
</g>
</svg>
