<svg xmlns="http://www.w3.org/2000/svg" width="50" height="40" viewBox="0 0 50 40" fill="none">
  <path d="M6.30856 6.16421C6.13278 6.43474 6.13278 6.58933 6.2695 6.68595C6.38669 6.74392 6.54294 6.99513 6.66013 7.20769C6.75778 7.43957 6.91403 7.76808 7.03122 7.92267C7.34372 8.40576 11.25 15.1111 11.6992 15.942C11.9336 16.3671 12.2851 16.9661 12.5 17.2946C12.7148 17.6038 12.9492 18.0096 13.0273 18.1642C13.164 18.4927 16.3086 23.9033 16.6015 24.3478C16.7187 24.5024 16.914 24.8502 17.0508 25.1207C17.6758 26.3188 18.2422 27.0724 18.4961 27.0145C18.6523 26.9758 19.0234 26.512 19.3164 25.9903C20.2539 24.3285 21.6797 21.8937 22.0703 21.256C22.4414 20.6763 26.0937 14.3961 26.2304 14.1062C26.3086 13.9517 26.5429 13.5459 26.7578 13.2367C26.9726 12.9082 27.3047 12.3478 27.5 11.9806C28.1836 10.6666 28.9843 9.37194 29.1992 9.23668C29.2968 9.15938 31.2304 9.08209 33.457 9.08209C36.9922 9.08209 37.5195 9.12074 37.6367 9.39127C37.7734 9.73909 37.0508 11.227 36.3476 12.0579C35.8398 12.657 36.1718 12.8116 37.9883 12.7729C40 12.7149 40.1953 12.6183 40.9375 11.1111C41.2109 10.5893 41.9922 9.23668 42.6758 8.1159C43.3593 6.99513 43.8672 6.02895 43.8086 5.93233C43.7695 5.85503 40 5.79706 35.4492 5.79706H27.1875L26.4258 7.01445C26.0156 7.67146 25.5859 8.40576 25.4492 8.599C25.3125 8.81156 24.9804 9.41059 24.6875 9.95165C24.414 10.4734 23.9453 11.2657 23.6523 11.6908C23.3593 12.1159 22.9297 12.8502 22.6758 13.3333C22.4218 13.8164 22.0312 14.512 21.7968 14.8985C21.582 15.285 21.0351 16.1932 20.6054 16.9275C20.1758 17.6618 19.7265 18.4347 19.5898 18.6473C19.4531 18.8599 19.2578 19.2657 19.1211 19.5555C18.8086 20.3478 18.0468 20.2898 17.6562 19.4589C17.5 19.1304 17.2851 18.7053 17.1875 18.5507C17.0898 18.3961 16.25 16.9468 15.332 15.3623C14.414 13.7584 13.5742 12.3285 13.457 12.1739C13.3593 12.0193 13.1836 11.6715 13.0859 11.4203C12.9687 11.169 12.7148 10.7439 12.5 10.4734C12.2851 10.2222 12.1093 9.79706 12.1093 9.54586C12.1093 9.08209 12.1289 9.08209 14.1406 9.08209H16.1914L16.6406 9.70045C16.8945 10.0483 17.2461 10.6473 17.4609 11.0145C17.8711 11.7874 18.3398 12.3671 18.5742 12.3671C18.7304 12.3671 19.0625 11.826 19.5898 10.7053C19.7461 10.3768 19.9804 10.0289 20.0976 9.97098C20.5078 9.71977 20.2929 8.98547 19.3554 7.43958L18.4179 5.89368L12.4804 5.83571C6.75778 5.79706 6.54294 5.79706 6.30856 6.16421Z" fill="#fff"/>
  <path d="M29.3945 16.9662C29.1211 17.1594 28.125 18.628 28.125 18.8406C28.125 18.9372 27.9883 19.1498 27.8125 19.343C27.2851 19.9227 27.5976 20.3092 28.5547 20.2705C29.0234 20.2319 29.8047 20.2319 30.332 20.2512C31.1328 20.2898 31.25 20.3478 31.25 20.715C31.25 20.9275 31.0351 21.4106 30.7617 21.7584C30.4883 22.1063 30.2734 22.4541 30.2734 22.5507C30.2734 22.6473 29.9609 23.1691 29.5898 23.7488C29.2187 24.3092 28.9062 24.8116 28.9062 24.8502C28.9062 24.9082 28.164 26.2029 27.2461 27.7488C26.3281 29.2947 25.5859 30.628 25.5859 30.744C25.5859 30.9372 24.7851 31.3043 24.5898 31.1884C24.5117 31.1498 24.2187 30.6473 23.9258 30.0483C23.6133 29.4686 23.2031 28.8309 23.0078 28.657C22.6367 28.3285 22.6172 28.3285 22.3242 28.6956C22.1679 28.9082 21.914 29.3527 21.7578 29.7005C21.6211 30.029 21.4062 30.3575 21.3086 30.4155C21.2109 30.4927 21.0742 30.8019 20.9961 31.1111C20.8789 31.6135 21.1133 32.1353 22.6367 34.686C23.6133 36.3092 24.414 37.7584 24.414 37.8551C24.414 37.971 24.6093 38.0676 24.8633 38.0676C25.1562 38.0676 25.3906 37.8937 25.5468 37.5459C25.664 37.2367 25.957 36.6956 26.1914 36.3285C27.0508 34.9372 29.4922 30.7246 29.4922 30.6473C29.4922 30.6087 29.8047 30.1063 30.1758 29.5459C30.5468 28.9662 30.8593 28.4444 30.8593 28.3671C30.8593 28.2898 31.0937 27.9034 31.3672 27.4976C31.6406 27.0918 31.9531 26.5894 32.0508 26.3768C32.1484 26.1642 32.3047 25.8551 32.4023 25.7005C32.5195 25.5459 32.9687 24.7536 33.4375 23.9613C33.8867 23.1691 34.3359 22.4927 34.414 22.4541C34.5117 22.4155 34.5703 22.2995 34.5703 22.1836C34.5703 22.0869 35.1953 20.9469 35.9375 19.6715C36.6992 18.3961 37.3047 17.2174 37.3047 17.0821C37.3047 16.8696 36.582 16.8116 33.457 16.8116C31.3281 16.8116 29.4922 16.8889 29.3945 16.9662Z" fill="#fff"/>
</svg>